<?xml version="1.0" standalone="no"?>
<!DOCTYPE svg PUBLIC "-//W3C//DTD SVG 20010904//EN"
 "http://www.w3.org/TR/2001/REC-SVG-20010904/DTD/svg10.dtd">
<svg version="1.0" xmlns="http://www.w3.org/2000/svg"
 width="350.000000pt" height="350.000000pt" viewBox="0 0 350.000000 350.000000"
 preserveAspectRatio="xMidYMid meet">

<g transform="translate(0.000000,350.000000) scale(0.100000,-0.100000)"
fill="#000000" stroke="none">
<path d="M565 2594 c-45 -23 -85 -65 -106 -109 -18 -38 -19 -80 -19 -735 0
-655 1 -697 19 -735 10 -22 31 -52 47 -67 66 -61 -5 -58 1246 -58 1091 0 1145
1 1183 19 22 10 52 31 67 47 60 64 58 40 58 794 0 754 2 730 -58 793 -15 16
-44 37 -64 48 -36 18 -75 19 -1190 19 -1024 0 -1156 -2 -1183 -16z m2346 -133
c27 -28 29 -34 29 -110 l0 -81 -1190 0 -1190 0 0 81 c0 76 2 82 29 110 l29 29
1132 0 1132 0 29 -29z m29 -967 l0 -426 -29 -29 -29 -29 -1132 0 -1132 0 -29
29 -29 29 0 426 0 426 1190 0 1190 0 0 -426z"/>
<path d="M830 1661 c-179 -58 -237 -255 -116 -398 39 -47 103 -74 175 -74 79
-1 87 6 56 43 -95 113 -99 271 -8 377 19 23 33 44 30 47 -9 10 -112 13 -137 5z"/>
<path d="M1090 1661 c-112 -34 -174 -119 -175 -237 0 -61 4 -77 30 -120 21
-33 49 -60 85 -82 52 -31 60 -33 132 -30 66 3 82 7 119 33 70 49 102 104 107
181 6 83 -14 136 -71 192 -63 61 -151 86 -227 63z"/>
<path d="M1580 1470 c-25 -25 -26 -62 -2 -83 27 -24 312 -25 336 -1 22 21 20
60 -4 84 -18 18 -33 20 -165 20 -132 0 -147 -2 -165 -20z"/>
<path d="M2030 1470 c-25 -25 -26 -62 -2 -83 16 -14 43 -17 170 -17 166 0 182
5 182 60 0 52 -27 60 -187 60 -130 0 -145 -2 -163 -20z"/>
<path d="M2480 1470 c-24 -24 -25 -48 -4 -78 15 -21 21 -22 169 -22 169 0 185
5 185 60 0 52 -27 60 -187 60 -130 0 -145 -2 -163 -20z"/>
</g>
</svg>
