<?xml version="1.0" encoding="UTF-8"?>
<svg version="1.1" xmlns="http://www.w3.org/2000/svg" width="512" height="320">
<path d="M0 0 C168.96 0 337.92 0 512 0 C512 105.6 512 211.2 512 320 C343.04 320 174.08 320 0 320 C0 214.4 0 108.8 0 0 Z " fill="#FEFEFE" transform="translate(0,0)"/>
<path d="M0 0 C3.71692527 0.01609164 7.43276579 0.00008467 11.1496582 -0.01904297 C13.55005119 -0.01706052 15.95044351 -0.01321682 18.35083008 -0.00732422 C19.44287247 -0.01339691 20.53491486 -0.0194696 21.66004944 -0.02572632 C43.32810943 0.16850032 63.7319952 9.03533313 79.11254883 24.15283203 C94.62218463 40.161061 101.88359958 61.11578577 101.69799805 83.10009766 C101.02910507 102.50135533 93.09402407 120.02501578 80.15942383 134.39111328 C79.5690332 135.07431641 78.97864258 135.75751953 78.37036133 136.46142578 C69.49069981 146.09680317 56.61825509 153.52423591 44.15942383 157.39111328 C43.29816895 157.65964111 42.43691406 157.92816895 41.54956055 158.20483398 C30.16391358 161.18149103 18.60230304 160.87913388 6.91088867 160.8371582 C3.29914306 160.82864796 -0.31101712 160.85748815 -3.92260742 160.88916016 C-19.43442535 160.9374241 -34.01649151 160.23663338 -48.02807617 152.82861328 C-48.67969727 152.49200684 -49.33131836 152.15540039 -50.00268555 151.80859375 C-68.84240976 141.6136797 -81.35041133 124.26312978 -87.79760742 104.12939453 C-94.06776182 81.65547035 -91.74878537 58.95797924 -80.64526367 38.39501953 C-78.02984269 34.04164564 -75.23974487 30.16352404 -71.84057617 26.39111328 C-71.0387793 25.49650391 -70.23698242 24.60189453 -69.41088867 23.68017578 C-49.91777942 3.05703121 -27.05305485 -0.13945795 0 0 Z " fill="#FCFDFE" transform="translate(250.840576171875,79.60888671875)"/>
<path d="M0 0 C3.71692527 0.01609164 7.43276579 0.00008467 11.1496582 -0.01904297 C13.55005119 -0.01706052 15.95044351 -0.01321682 18.35083008 -0.00732422 C19.44287247 -0.01339691 20.53491486 -0.0194696 21.66004944 -0.02572632 C43.32810943 0.16850032 63.7319952 9.03533313 79.11254883 24.15283203 C94.62218463 40.161061 101.88359958 61.11578577 101.69799805 83.10009766 C101.02910507 102.50135533 93.09402407 120.02501578 80.15942383 134.39111328 C79.5690332 135.07431641 78.97864258 135.75751953 78.37036133 136.46142578 C69.49069981 146.09680317 56.61825509 153.52423591 44.15942383 157.39111328 C43.29816895 157.65964111 42.43691406 157.92816895 41.54956055 158.20483398 C30.16391358 161.18149103 18.60230304 160.87913388 6.91088867 160.8371582 C3.29914306 160.82864796 -0.31101712 160.85748815 -3.92260742 160.88916016 C-19.43442535 160.9374241 -34.01649151 160.23663338 -48.02807617 152.82861328 C-48.67969727 152.49200684 -49.33131836 152.15540039 -50.00268555 151.80859375 C-68.84240976 141.6136797 -81.35041133 124.26312978 -87.79760742 104.12939453 C-94.06776182 81.65547035 -91.74878537 58.95797924 -80.64526367 38.39501953 C-78.02984269 34.04164564 -75.23974487 30.16352404 -71.84057617 26.39111328 C-71.0387793 25.49650391 -70.23698242 24.60189453 -69.41088867 23.68017578 C-49.91777942 3.05703121 -27.05305485 -0.13945795 0 0 Z M-66.02807617 30.57861328 C-80.16011291 47.23526439 -85.2708373 68.00533714 -83.59838867 89.50439453 C-81.2231638 109.35448807 -70.87874144 126.55848557 -55.84057617 139.39111328 C-40.50226827 151.17210557 -22.83011077 154.91578577 -3.84057617 153.39111328 C-0.0043479 152.74545815 3.51069654 151.7247462 7.15942383 150.39111328 C7.97411133 150.12427734 8.78879883 149.85744141 9.62817383 149.58251953 C26.66221102 143.51818667 40.0978609 130.35582414 48.15942383 114.39111328 C56.11467919 96.55844085 59.09652177 74.52863021 52.41943359 55.73413086 C45.02926181 36.84201883 33.06841638 21.98967238 14.65942383 13.01611328 C-14.50553708 0.63476195 -44.30126222 7.83928761 -66.02807617 30.57861328 Z " fill="#034C98" transform="translate(250.840576171875,79.60888671875)"/>
<path d="M0 0 C0 28.38 0 56.76 0 86 C-10.4772522 81.80909912 -19.6036632 73.51864791 -24.19140625 63.05859375 C-24.45824219 62.37925781 -24.72507813 61.69992188 -25 61 C-25.29777344 60.31035156 -25.59554687 59.62070313 -25.90234375 58.91015625 C-29.77536442 48.46906365 -29.7973885 34.73719268 -25.32421875 24.51953125 C-20.75151946 15.81926269 -11.68054861 0 0 0 Z " fill="#014B97" transform="translate(221,117)"/>
<path d="M0 0 C11.62517041 3.8750568 18.02735717 11.66732791 24 22 C29.40352603 32.82157767 29.90296114 45.91974453 26.375 57.4375 C20.82484495 71.6233858 13.63929129 79.18035436 0 86 C0 57.62 0 29.24 0 0 Z " fill="#024B97" transform="translate(253,117)"/>
</svg>
