<?xml version="1.0" encoding="UTF-8"?>
<svg version="1.1" xmlns="http://www.w3.org/2000/svg" width="3000" height="2000">
<path d="M0 0 C1.15797423 -0.00247617 1.15797423 -0.00247617 2.33934188 -0.00500236 C4.922495 -0.00931138 7.50559065 -0.00653107 10.08874518 -0.00377727 C11.96889576 -0.00542765 13.84904601 -0.00751427 15.72919568 -0.00999737 C20.9123271 -0.01556412 26.09544199 -0.01489158 31.27857544 -0.01321978 C36.91133361 -0.01248903 42.54408711 -0.0175108 48.17684329 -0.0217948 C59.35619211 -0.02937809 70.53553616 -0.03156802 81.71488729 -0.03212385 C91.01266049 -0.03275815 100.31043104 -0.03572561 109.60820299 -0.04033732 C110.61238743 -0.04083252 110.61238743 -0.04083252 111.63685843 -0.04133773 C114.36346727 -0.04268774 117.0900761 -0.0440504 119.81668493 -0.04542983 C152.0940884 -0.06173039 184.37149113 -0.06811822 216.64889802 -0.0728777 C232.72216281 -0.07526117 248.79542718 -0.07896469 264.86869165 -0.0829148 C316.43005463 -0.0955792 367.99141759 -0.10636302 419.5527821 -0.10975526 C422.01702954 -0.1099175 424.48127697 -0.11008306 426.94552441 -0.11024964 C431.88758561 -0.11058344 436.82964681 -0.11091392 441.77170801 -0.1112442 C447.55762223 -0.1116311 453.34353646 -0.11202071 459.12945068 -0.11241527 C460.78542427 -0.11252769 462.44139785 -0.1126391 464.09737144 -0.11274952 C517.27846177 -0.11629875 570.45953859 -0.13137636 623.64062376 -0.15468726 C661.85554448 -0.17143125 700.07046266 -0.18690492 738.2853871 -0.19142222 C739.07146706 -0.19151571 739.85754703 -0.1916092 740.6674476 -0.19170551 C757.92481494 -0.19372467 775.18218223 -0.19488062 792.43954968 -0.1952341 C798.61480267 -0.19537027 804.79005565 -0.19557926 810.96530863 -0.19582735 C812.50154213 -0.19588891 814.03777563 -0.19594723 815.57400913 -0.1960023 C840.04230746 -0.19692171 864.51059168 -0.20688502 888.97888537 -0.22145979 C913.62853233 -0.23608381 938.27816199 -0.24111263 962.92781252 -0.23304025 C966.33676493 -0.23192493 969.74571736 -0.23091425 973.15466982 -0.22996593 C973.82289493 -0.22977596 974.49112004 -0.22958599 975.17959439 -0.22939027 C986.38647584 -0.2264947 997.593327 -0.23546364 1008.80020132 -0.24760534 C1018.55671424 -0.25734828 1028.3131866 -0.2561836 1038.06969914 -0.24616911 C1043.62812284 -0.24077221 1049.18643538 -0.2400828 1054.74484991 -0.25267783 C1059.80828681 -0.26405542 1064.87152258 -0.26145001 1069.93495267 -0.24801075 C1071.74879409 -0.24558872 1073.56265122 -0.24811813 1075.37647532 -0.25640723 C1104.12040175 -0.37905859 1131.61872033 6.9355506 1154.97274119 24.1276505 C1155.77453806 24.70643956 1156.57633494 25.28522862 1157.40242869 25.88155675 C1176.0799192 40.05807823 1189.45158205 57.84274515 1198.97274119 79.1276505 C1199.45485056 80.20401769 1199.93695994 81.28038487 1200.43367869 82.38936925 C1206.10517824 96.08689999 1209.14588694 111.32416189 1209.10039169 126.14093459 C1209.10286785 127.29663919 1209.10286785 127.29663919 1209.10539405 128.47569136 C1209.10970294 131.05368844 1209.10692279 133.63162794 1209.10416895 136.20962644 C1209.10581934 138.08606355 1209.10790596 139.96250031 1209.11038905 141.83893651 C1209.11595573 147.01176417 1209.11528328 152.18457528 1209.11361146 157.35740498 C1209.11288071 162.97900849 1209.11790251 168.60060733 1209.12218648 174.22220886 C1209.12976974 185.37942274 1209.13195971 196.53663185 1209.13251554 207.69384804 C1209.13314984 216.97323868 1209.13611732 226.25262665 1209.14072901 235.53201604 C1209.14105914 236.20015197 1209.14138928 236.8682879 1209.14172941 237.55667038 C1209.14307942 240.27790428 1209.14444209 242.99913817 1209.14582152 245.72037206 C1209.1621222 277.93442248 1209.16850997 310.14847218 1209.17326939 342.36252603 C1209.17565289 358.40472596 1209.17935643 374.44692548 1209.18330649 390.4891251 C1209.19597104 441.95216743 1209.20675474 493.41520975 1209.21014695 544.87825361 C1209.21030919 547.33781981 1209.21047475 549.79738601 1209.21064133 552.25695221 C1209.21097513 557.18961826 1209.21130561 562.12228431 1209.21163589 567.05495036 C1209.21202279 572.82985475 1209.21241239 578.60475914 1209.21280695 584.37966352 C1209.21291937 586.03248556 1209.21303079 587.6853076 1209.21314121 589.33812963 C1209.21669025 642.41530221 1209.23176703 695.49246125 1209.25507895 748.56962865 C1209.27182362 786.70977589 1209.28729691 824.84992058 1209.29181391 862.99007154 C1209.29195414 864.16696338 1209.29195414 864.16696338 1209.2920972 865.36763082 C1209.29411639 882.59267151 1209.29527232 899.81771217 1209.29562579 917.04275297 C1209.29576196 923.20650459 1209.29597095 929.3702562 1209.29621904 935.53400782 C1209.2962806 937.06737538 1209.29633892 938.60074295 1209.29639399 940.13411052 C1209.29731329 964.55399572 1209.30727537 988.97386677 1209.32185147 1013.39374732 C1209.33647766 1037.99600322 1209.34150299 1062.59824177 1209.33343193 1087.20050125 C1209.33231662 1090.60342559 1209.33130594 1094.00634995 1209.33035761 1097.40927434 C1209.33016764 1098.07631384 1209.32997768 1098.74335334 1209.32978195 1099.43060616 C1209.32688718 1110.61441302 1209.33585305 1121.79818952 1209.34799702 1132.98198925 C1209.35774348 1142.72038568 1209.35657192 1152.45874148 1209.34656079 1162.19713754 C1209.34116643 1167.74439378 1209.34046634 1173.29153866 1209.35306951 1178.83878569 C1209.36445712 1183.89326011 1209.36183084 1188.94753316 1209.34840244 1194.0020008 C1209.34598281 1195.81147638 1209.34850116 1197.62096773 1209.35679892 1199.4304259 C1209.51886403 1237.28414126 1196.41722941 1270.37713385 1169.97274119 1297.5651505 C1162.7389045 1304.84591833 1154.79900646 1310.89283719 1145.97274119 1316.1276505 C1145.31274119 1316.1276505 1144.65274119 1316.1276505 1143.97274119 1316.1276505 C1143.97274119 1316.7876505 1143.97274119 1317.4476505 1143.97274119 1318.1276505 C1140.16251504 1319.73725545 1136.34916415 1321.33932702 1132.53524119 1322.9401505 C1131.46596384 1323.39196691 1130.3966865 1323.84378331 1129.29500681 1324.30929112 C1128.24119822 1324.75079503 1127.18738962 1325.19229894 1126.10164744 1325.64718175 C1125.14331003 1326.05041661 1124.18497263 1326.45365148 1123.1975947 1326.86910558 C1116.26713068 1329.57381767 1109.487615 1331.65930325 1102.1265313 1332.79075378 C1101.3071475 1332.91713874 1100.4877637 1333.0435237 1099.64355008 1333.1737385 C1090.59832423 1334.46545556 1081.63245347 1334.54980043 1072.51209933 1334.51799798 C1070.62011509 1334.5225444 1068.72813363 1334.528397 1066.83615696 1334.53541949 C1061.67147304 1334.55085258 1056.50694354 1334.54791574 1051.34224634 1334.54179101 C1045.71051241 1334.53843262 1040.0788164 1334.55247923 1034.44709748 1334.56425422 C1024.58830994 1334.58248506 1014.72956277 1334.5896838 1004.87075907 1334.58955884 C994.30034346 1334.58945171 983.72995608 1334.59572924 973.15955073 1334.60996175 C972.49019486 1334.61085873 971.82083899 1334.6117557 971.13119961 1334.61267986 C968.40472857 1334.61635571 965.67825761 1334.62007888 962.95178673 1334.62386173 C937.59914029 1334.65903552 912.24650167 1334.67971151 886.89383417 1334.69116712 C862.470774 1334.70221919 838.04772804 1334.71858534 813.62467676 1334.74234128 C812.08973072 1334.74382704 810.55478467 1334.74531227 809.01983862 1334.74679697 C802.8513666 1334.75277224 796.68289462 1334.7587843 790.51442269 1334.76484339 C773.27284121 1334.7817644 756.03125889 1334.79767835 738.78967577 1334.81283402 C738.004624 1334.81352445 737.21957223 1334.81421488 736.41073101 1334.81492623 C711.40525157 1334.8368487 686.39977106 1334.85439524 661.39428622 1334.86882043 C660.58353633 1334.86928844 659.77278644 1334.86975644 658.93746837 1334.87023863 C645.771971 1334.87782135 632.60647349 1334.88514499 619.44097597 1334.89245295 C567.20203772 1334.92146644 514.96312516 1334.96281201 462.72420603 1335.01607823 C459.42153859 1335.01944239 456.11887114 1335.02280518 452.8162037 1335.02616803 C451.99962841 1335.02699961 451.18305312 1335.02783118 450.34173313 1335.02868796 C441.29840898 1335.03789548 432.2550848 1335.0470681 423.21176058 1335.05619836 C422.40078295 1335.05701803 421.58980532 1335.0578377 420.75425262 1335.05868221 C376.98450312 1335.1028826 333.21474653 1335.13752932 289.44498605 1335.16880554 C287.90220781 1335.16991029 286.35942957 1335.17101543 284.81665133 1335.17212098 C284.05401517 1335.17266744 283.291379 1335.1732139 282.50563265 1335.17377692 C280.96703971 1335.17487979 279.42844677 1335.17598311 277.88985383 1335.17708688 C274.05683681 1335.1798366 270.22381979 1335.18257929 266.39080276 1335.18530671 C249.58644316 1335.19729722 232.78208595 1335.21057861 215.97773033 1335.22730398 C215.22040391 1335.22805733 214.46307748 1335.22881068 213.68280176 1335.22958686 C209.86978047 1335.23338716 206.05675919 1335.23720921 202.24373793 1335.241039 C174.6988508 1335.26869237 147.15397188 1335.28983009 119.60907207 1335.29936264 C116.89668838 1335.30032879 114.1843047 1335.30132502 111.47192103 1335.30234456 C110.80625404 1335.30259157 110.14058706 1335.30283857 109.45474834 1335.30309306 C98.26639979 1335.30743194 87.07806911 1335.31968291 75.88972929 1335.33399712 C66.16488445 1335.34587983 56.44005396 1335.3504951 46.71520199 1335.34910618 C41.16851095 1335.34851536 35.62187128 1335.35112476 30.07519077 1335.36249838 C25.03192599 1335.37277102 19.98874701 1335.37384955 14.94547651 1335.36751503 C13.12997444 1335.3668556 11.3144673 1335.36957323 9.49897663 1335.37603872 C-7.03205608 1335.43161966 -7.03205608 1335.43161966 -15.02725881 1333.1276505 C-16.64726802 1332.81676793 -18.26924624 1332.51561267 -19.89444631 1332.23311925 C-29.29825858 1330.53024921 -37.50097304 1328.5613191 -46.02725881 1324.1276505 C-47.37420454 1323.51484317 -48.72480074 1322.91002546 -50.07804006 1322.31124425 C-58.90294495 1318.37483619 -66.39214194 1314.09584127 -74.02725881 1308.1276505 C-74.68725881 1307.7976505 -75.34725881 1307.4676505 -76.02725881 1307.1276505 C-76.02725881 1306.4676505 -76.02725881 1305.8076505 -76.02725881 1305.1276505 C-76.61499075 1304.86226476 -77.20272268 1304.59687901 -77.80826467 1304.32345128 C-90.08560442 1297.70727677 -100.10374722 1282.89175283 -107.02725881 1271.1276505 C-107.02725881 1270.4676505 -107.02725881 1269.8076505 -107.02725881 1269.1276505 C-107.68725881 1268.7976505 -108.34725881 1268.4676505 -109.02725881 1268.1276505 C-110.39918507 1265.52039671 -111.67377512 1262.92665947 -112.90225881 1260.2526505 C-113.26013479 1259.47977696 -113.61801077 1258.70690343 -113.98673147 1257.91060948 C-117.84520822 1249.48084856 -121.06247036 1241.29580738 -122.63272756 1232.12374425 C-122.94786292 1230.06536215 -122.94786292 1230.06536215 -124.02725881 1228.1276505 C-125.57758714 1218.42301639 -125.16918094 1208.44051466 -125.15868658 1198.64250302 C-125.16033808 1196.75885594 -125.16242521 1194.8752092 -125.16490668 1192.99156302 C-125.17045896 1187.81270972 -125.16980356 1182.63387299 -125.16812909 1177.45501767 C-125.16739693 1171.82168202 -125.17242342 1166.18835101 -125.17670411 1160.55501735 C-125.18427907 1149.3809092 -125.18647691 1138.20680583 -125.18703316 1127.03269538 C-125.1876679 1117.7394175 -125.19063778 1108.44614228 -125.19524664 1099.15286565 C-125.19557677 1098.48332328 -125.1959069 1097.81378091 -125.19624704 1097.12394937 C-125.19759708 1094.39691117 -125.19895975 1091.66987298 -125.20033915 1088.9428348 C-125.21663033 1056.67818592 -125.22302616 1024.41353778 -125.22778702 992.1488855 C-125.23017122 976.08140854 -125.23387487 960.013932 -125.23782411 943.94645537 C-125.25048713 892.39764127 -125.26127151 840.84882718 -125.26466457 789.30001155 C-125.26482681 786.83697152 -125.26499237 784.37393148 -125.26515896 781.91089145 C-125.26549275 776.97130663 -125.26582323 772.0317218 -125.26615351 767.09213698 C-125.26654041 761.30920321 -125.26693002 755.52626945 -125.26732458 749.74333569 C-125.267437 748.08821979 -125.26754842 746.43310389 -125.26765883 744.77798799 C-125.27120854 691.61717597 -125.28628895 638.45637746 -125.30959658 585.2955706 C-125.32634062 547.08972898 -125.34181415 508.8838899 -125.34633154 470.67804456 C-125.34642502 469.89216595 -125.34651851 469.10628734 -125.34661483 468.29659423 C-125.34863397 451.0437952 -125.34978994 433.7909962 -125.35014341 416.53819705 C-125.35027958 410.36466676 -125.35048857 404.19113647 -125.35073667 398.01760618 C-125.35079823 396.48181445 -125.35085655 394.94602272 -125.35091161 393.41023099 C-125.35183097 368.95038618 -125.36179357 344.49055549 -125.3763691 320.03071533 C-125.39099277 295.39151325 -125.39602211 270.75232848 -125.38794956 246.11312282 C-125.38683424 242.70569581 -125.38582356 239.29826878 -125.38487524 235.89084172 C-125.38468527 235.22291759 -125.3844953 234.55499346 -125.38429958 233.86682921 C-125.38140403 222.66507391 -125.39037289 211.46334892 -125.40251465 200.26160075 C-125.41225757 190.50962686 -125.41109293 180.75769356 -125.40107842 171.00572005 C-125.39568157 165.44994172 -125.394992 159.89427459 -125.40758714 154.33850543 C-125.41896478 149.27750596 -125.41635927 144.2167077 -125.40292007 139.15571504 C-125.40049805 137.34276294 -125.40302737 135.52979514 -125.41131654 133.71686038 C-125.53401667 104.97586097 -118.21737434 77.47897575 -101.02725881 54.1276505 C-100.44846975 53.32585362 -99.86968069 52.52405675 -99.27335256 51.697963 C-88.97263551 38.12682391 -76.55617501 26.95213921 -62.02725881 18.1276505 C-61.40883108 17.75027745 -60.79040334 17.37290441 -60.15323538 16.98409581 C-42.31192486 6.31345555 -20.80416297 -0.06374915 0 0 Z " fill="#FCB813" transform="translate(958.0272588133812,332.8723495006561)"/>
<path d="M0 0 C1.15797423 -0.00247617 1.15797423 -0.00247617 2.33934188 -0.00500236 C4.922495 -0.00931138 7.50559065 -0.00653107 10.08874518 -0.00377727 C11.96889576 -0.00542765 13.84904601 -0.00751427 15.72919568 -0.00999737 C20.9123271 -0.01556412 26.09544199 -0.01489158 31.27857544 -0.01321978 C36.91133361 -0.01248903 42.54408711 -0.0175108 48.17684329 -0.0217948 C59.35619211 -0.02937809 70.53553616 -0.03156802 81.71488729 -0.03212385 C91.01266049 -0.03275815 100.31043104 -0.03572561 109.60820299 -0.04033732 C110.61238743 -0.04083252 110.61238743 -0.04083252 111.63685843 -0.04133773 C114.36346727 -0.04268774 117.0900761 -0.0440504 119.81668493 -0.04542983 C152.0940884 -0.06173039 184.37149113 -0.06811822 216.64889802 -0.0728777 C232.72216281 -0.07526117 248.79542718 -0.07896469 264.86869165 -0.0829148 C316.43005463 -0.0955792 367.99141759 -0.10636302 419.5527821 -0.10975526 C422.01702954 -0.1099175 424.48127697 -0.11008306 426.94552441 -0.11024964 C431.88758561 -0.11058344 436.82964681 -0.11091392 441.77170801 -0.1112442 C447.55762223 -0.1116311 453.34353646 -0.11202071 459.12945068 -0.11241527 C460.78542427 -0.11252769 462.44139785 -0.1126391 464.09737144 -0.11274952 C517.27846177 -0.11629875 570.45953859 -0.13137636 623.64062376 -0.15468726 C661.85554448 -0.17143125 700.07046266 -0.18690492 738.2853871 -0.19142222 C739.07146706 -0.19151571 739.85754703 -0.1916092 740.6674476 -0.19170551 C757.92481494 -0.19372467 775.18218223 -0.19488062 792.43954968 -0.1952341 C798.61480267 -0.19537027 804.79005565 -0.19557926 810.96530863 -0.19582735 C812.50154213 -0.19588891 814.03777563 -0.19594723 815.57400913 -0.1960023 C840.04230746 -0.19692171 864.51059168 -0.20688502 888.97888537 -0.22145979 C913.62853233 -0.23608381 938.27816199 -0.24111263 962.92781252 -0.23304025 C966.33676493 -0.23192493 969.74571736 -0.23091425 973.15466982 -0.22996593 C973.82289493 -0.22977596 974.49112004 -0.22958599 975.17959439 -0.22939027 C986.38647584 -0.2264947 997.593327 -0.23546364 1008.80020132 -0.24760534 C1018.55671424 -0.25734828 1028.3131866 -0.2561836 1038.06969914 -0.24616911 C1043.62812284 -0.24077221 1049.18643538 -0.2400828 1054.74484991 -0.25267783 C1059.80828681 -0.26405542 1064.87152258 -0.26145001 1069.93495267 -0.24801075 C1071.74879409 -0.24558872 1073.56265122 -0.24811813 1075.37647532 -0.25640723 C1104.12040175 -0.37905859 1131.61872033 6.9355506 1154.97274119 24.1276505 C1155.77453806 24.70643956 1156.57633494 25.28522862 1157.40242869 25.88155675 C1176.0799192 40.05807823 1189.45158205 57.84274515 1198.97274119 79.1276505 C1199.45485056 80.20401769 1199.93695994 81.28038487 1200.43367869 82.38936925 C1206.10517824 96.08689999 1209.14588694 111.32416189 1209.10039169 126.14093459 C1209.10286785 127.29663919 1209.10286785 127.29663919 1209.10539405 128.47569136 C1209.10970294 131.05368844 1209.10692279 133.63162794 1209.10416895 136.20962644 C1209.10581934 138.08606355 1209.10790596 139.96250031 1209.11038905 141.83893651 C1209.11595573 147.01176417 1209.11528328 152.18457528 1209.11361146 157.35740498 C1209.11288071 162.97900849 1209.11790251 168.60060733 1209.12218648 174.22220886 C1209.12976974 185.37942274 1209.13195971 196.53663185 1209.13251554 207.69384804 C1209.13314984 216.97323868 1209.13611732 226.25262665 1209.14072901 235.53201604 C1209.14105914 236.20015197 1209.14138928 236.8682879 1209.14172941 237.55667038 C1209.14307942 240.27790428 1209.14444209 242.99913817 1209.14582152 245.72037206 C1209.1621222 277.93442248 1209.16850997 310.14847218 1209.17326939 342.36252603 C1209.17565289 358.40472596 1209.17935643 374.44692548 1209.18330649 390.4891251 C1209.19597104 441.95216743 1209.20675474 493.41520975 1209.21014695 544.87825361 C1209.21030919 547.33781981 1209.21047475 549.79738601 1209.21064133 552.25695221 C1209.21097513 557.18961826 1209.21130561 562.12228431 1209.21163589 567.05495036 C1209.21202279 572.82985475 1209.21241239 578.60475914 1209.21280695 584.37966352 C1209.21291937 586.03248556 1209.21303079 587.6853076 1209.21314121 589.33812963 C1209.21669025 642.41530221 1209.23176703 695.49246125 1209.25507895 748.56962865 C1209.27182362 786.70977589 1209.28729691 824.84992058 1209.29181391 862.99007154 C1209.29195414 864.16696338 1209.29195414 864.16696338 1209.2920972 865.36763082 C1209.29411639 882.59267151 1209.29527232 899.81771217 1209.29562579 917.04275297 C1209.29576196 923.20650459 1209.29597095 929.3702562 1209.29621904 935.53400782 C1209.2962806 937.06737538 1209.29633892 938.60074295 1209.29639399 940.13411052 C1209.29731329 964.55399572 1209.30727537 988.97386677 1209.32185147 1013.39374732 C1209.33647766 1037.99600322 1209.34150299 1062.59824177 1209.33343193 1087.20050125 C1209.33231662 1090.60342559 1209.33130594 1094.00634995 1209.33035761 1097.40927434 C1209.33016764 1098.07631384 1209.32997768 1098.74335334 1209.32978195 1099.43060616 C1209.32688718 1110.61441302 1209.33585305 1121.79818952 1209.34799702 1132.98198925 C1209.35774348 1142.72038568 1209.35657192 1152.45874148 1209.34656079 1162.19713754 C1209.34116643 1167.74439378 1209.34046634 1173.29153866 1209.35306951 1178.83878569 C1209.36445712 1183.89326011 1209.36183084 1188.94753316 1209.34840244 1194.0020008 C1209.34598281 1195.81147638 1209.34850116 1197.62096773 1209.35679892 1199.4304259 C1209.51886403 1237.28414126 1196.41722941 1270.37713385 1169.97274119 1297.5651505 C1162.7389045 1304.84591833 1154.79900646 1310.89283719 1145.97274119 1316.1276505 C1145.31274119 1316.1276505 1144.65274119 1316.1276505 1143.97274119 1316.1276505 C1143.97274119 1316.7876505 1143.97274119 1317.4476505 1143.97274119 1318.1276505 C1140.16251504 1319.73725545 1136.34916415 1321.33932702 1132.53524119 1322.9401505 C1131.46596384 1323.39196691 1130.3966865 1323.84378331 1129.29500681 1324.30929112 C1128.24119822 1324.75079503 1127.18738962 1325.19229894 1126.10164744 1325.64718175 C1125.14331003 1326.05041661 1124.18497263 1326.45365148 1123.1975947 1326.86910558 C1116.26713068 1329.57381767 1109.487615 1331.65930325 1102.1265313 1332.79075378 C1101.3071475 1332.91713874 1100.4877637 1333.0435237 1099.64355008 1333.1737385 C1090.59832423 1334.46545556 1081.63245347 1334.54980043 1072.51209933 1334.51799798 C1070.62011509 1334.5225444 1068.72813363 1334.528397 1066.83615696 1334.53541949 C1061.67147304 1334.55085258 1056.50694354 1334.54791574 1051.34224634 1334.54179101 C1045.71051241 1334.53843262 1040.0788164 1334.55247923 1034.44709748 1334.56425422 C1024.58830994 1334.58248506 1014.72956277 1334.5896838 1004.87075907 1334.58955884 C994.30034346 1334.58945171 983.72995608 1334.59572924 973.15955073 1334.60996175 C972.49019486 1334.61085873 971.82083899 1334.6117557 971.13119961 1334.61267986 C968.40472857 1334.61635571 965.67825761 1334.62007888 962.95178673 1334.62386173 C937.59914029 1334.65903552 912.24650167 1334.67971151 886.89383417 1334.69116712 C862.470774 1334.70221919 838.04772804 1334.71858534 813.62467676 1334.74234128 C812.08973072 1334.74382704 810.55478467 1334.74531227 809.01983862 1334.74679697 C802.8513666 1334.75277224 796.68289462 1334.7587843 790.51442269 1334.76484339 C773.27284121 1334.7817644 756.03125889 1334.79767835 738.78967577 1334.81283402 C738.004624 1334.81352445 737.21957223 1334.81421488 736.41073101 1334.81492623 C711.40525157 1334.8368487 686.39977106 1334.85439524 661.39428622 1334.86882043 C660.58353633 1334.86928844 659.77278644 1334.86975644 658.93746837 1334.87023863 C645.771971 1334.87782135 632.60647349 1334.88514499 619.44097597 1334.89245295 C567.20203772 1334.92146644 514.96312516 1334.96281201 462.72420603 1335.01607823 C459.42153859 1335.01944239 456.11887114 1335.02280518 452.8162037 1335.02616803 C451.99962841 1335.02699961 451.18305312 1335.02783118 450.34173313 1335.02868796 C441.29840898 1335.03789548 432.2550848 1335.0470681 423.21176058 1335.05619836 C422.40078295 1335.05701803 421.58980532 1335.0578377 420.75425262 1335.05868221 C376.98450312 1335.1028826 333.21474653 1335.13752932 289.44498605 1335.16880554 C287.90220781 1335.16991029 286.35942957 1335.17101543 284.81665133 1335.17212098 C284.05401517 1335.17266744 283.291379 1335.1732139 282.50563265 1335.17377692 C280.96703971 1335.17487979 279.42844677 1335.17598311 277.88985383 1335.17708688 C274.05683681 1335.1798366 270.22381979 1335.18257929 266.39080276 1335.18530671 C249.58644316 1335.19729722 232.78208595 1335.21057861 215.97773033 1335.22730398 C215.22040391 1335.22805733 214.46307748 1335.22881068 213.68280176 1335.22958686 C209.86978047 1335.23338716 206.05675919 1335.23720921 202.24373793 1335.241039 C174.6988508 1335.26869237 147.15397188 1335.28983009 119.60907207 1335.29936264 C116.89668838 1335.30032879 114.1843047 1335.30132502 111.47192103 1335.30234456 C110.80625404 1335.30259157 110.14058706 1335.30283857 109.45474834 1335.30309306 C98.26639979 1335.30743194 87.07806911 1335.31968291 75.88972929 1335.33399712 C66.16488445 1335.34587983 56.44005396 1335.3504951 46.71520199 1335.34910618 C41.16851095 1335.34851536 35.62187128 1335.35112476 30.07519077 1335.36249838 C25.03192599 1335.37277102 19.98874701 1335.37384955 14.94547651 1335.36751503 C13.12997444 1335.3668556 11.3144673 1335.36957323 9.49897663 1335.37603872 C-7.03205608 1335.43161966 -7.03205608 1335.43161966 -15.02725881 1333.1276505 C-16.64726802 1332.81676793 -18.26924624 1332.51561267 -19.89444631 1332.23311925 C-29.29825858 1330.53024921 -37.50097304 1328.5613191 -46.02725881 1324.1276505 C-47.37420454 1323.51484317 -48.72480074 1322.91002546 -50.07804006 1322.31124425 C-58.90294495 1318.37483619 -66.39214194 1314.09584127 -74.02725881 1308.1276505 C-74.68725881 1307.7976505 -75.34725881 1307.4676505 -76.02725881 1307.1276505 C-76.02725881 1306.4676505 -76.02725881 1305.8076505 -76.02725881 1305.1276505 C-76.61499075 1304.86226476 -77.20272268 1304.59687901 -77.80826467 1304.32345128 C-90.08560442 1297.70727677 -100.10374722 1282.89175283 -107.02725881 1271.1276505 C-107.02725881 1270.4676505 -107.02725881 1269.8076505 -107.02725881 1269.1276505 C-107.68725881 1268.7976505 -108.34725881 1268.4676505 -109.02725881 1268.1276505 C-110.39918507 1265.52039671 -111.67377512 1262.92665947 -112.90225881 1260.2526505 C-113.26013479 1259.47977696 -113.61801077 1258.70690343 -113.98673147 1257.91060948 C-117.84520822 1249.48084856 -121.06247036 1241.29580738 -122.63272756 1232.12374425 C-122.94786292 1230.06536215 -122.94786292 1230.06536215 -124.02725881 1228.1276505 C-125.57758714 1218.42301639 -125.16918094 1208.44051466 -125.15868658 1198.64250302 C-125.16033808 1196.75885594 -125.16242521 1194.8752092 -125.16490668 1192.99156302 C-125.17045896 1187.81270972 -125.16980356 1182.63387299 -125.16812909 1177.45501767 C-125.16739693 1171.82168202 -125.17242342 1166.18835101 -125.17670411 1160.55501735 C-125.18427907 1149.3809092 -125.18647691 1138.20680583 -125.18703316 1127.03269538 C-125.1876679 1117.7394175 -125.19063778 1108.44614228 -125.19524664 1099.15286565 C-125.19557677 1098.48332328 -125.1959069 1097.81378091 -125.19624704 1097.12394937 C-125.19759708 1094.39691117 -125.19895975 1091.66987298 -125.20033915 1088.9428348 C-125.21663033 1056.67818592 -125.22302616 1024.41353778 -125.22778702 992.1488855 C-125.23017122 976.08140854 -125.23387487 960.013932 -125.23782411 943.94645537 C-125.25048713 892.39764127 -125.26127151 840.84882718 -125.26466457 789.30001155 C-125.26482681 786.83697152 -125.26499237 784.37393148 -125.26515896 781.91089145 C-125.26549275 776.97130663 -125.26582323 772.0317218 -125.26615351 767.09213698 C-125.26654041 761.30920321 -125.26693002 755.52626945 -125.26732458 749.74333569 C-125.267437 748.08821979 -125.26754842 746.43310389 -125.26765883 744.77798799 C-125.27120854 691.61717597 -125.28628895 638.45637746 -125.30959658 585.2955706 C-125.32634062 547.08972898 -125.34181415 508.8838899 -125.34633154 470.67804456 C-125.34642502 469.89216595 -125.34651851 469.10628734 -125.34661483 468.29659423 C-125.34863397 451.0437952 -125.34978994 433.7909962 -125.35014341 416.53819705 C-125.35027958 410.36466676 -125.35048857 404.19113647 -125.35073667 398.01760618 C-125.35079823 396.48181445 -125.35085655 394.94602272 -125.35091161 393.41023099 C-125.35183097 368.95038618 -125.36179357 344.49055549 -125.3763691 320.03071533 C-125.39099277 295.39151325 -125.39602211 270.75232848 -125.38794956 246.11312282 C-125.38683424 242.70569581 -125.38582356 239.29826878 -125.38487524 235.89084172 C-125.38468527 235.22291759 -125.3844953 234.55499346 -125.38429958 233.86682921 C-125.38140403 222.66507391 -125.39037289 211.46334892 -125.40251465 200.26160075 C-125.41225757 190.50962686 -125.41109293 180.75769356 -125.40107842 171.00572005 C-125.39568157 165.44994172 -125.394992 159.89427459 -125.40758714 154.33850543 C-125.41896478 149.27750596 -125.41635927 144.2167077 -125.40292007 139.15571504 C-125.40049805 137.34276294 -125.40302737 135.52979514 -125.41131654 133.71686038 C-125.53401667 104.97586097 -118.21737434 77.47897575 -101.02725881 54.1276505 C-100.44846975 53.32585362 -99.86968069 52.52405675 -99.27335256 51.697963 C-88.97263551 38.12682391 -76.55617501 26.95213921 -62.02725881 18.1276505 C-61.40883108 17.75027745 -60.79040334 17.37290441 -60.15323538 16.98409581 C-42.31192486 6.31345555 -20.80416297 -0.06374915 0 0 Z M-76.57804006 60.49386144 C-79.80698884 64.13404426 -82.49542436 67.98226353 -85.02725881 72.1276505 C-85.60733694 73.024838 -86.18741506 73.9220255 -86.78507131 74.8464005 C-99.59289688 95.47198973 -102.18556643 117.52373473 -102.15589327 141.31072164 C-102.15724079 143.17364589 -102.15902517 145.03656987 -102.1612055 146.89949334 C-102.16593192 152.02545144 -102.16443499 157.15139176 -102.16192773 162.27735073 C-102.1602945 167.85156295 -102.16443562 173.42577136 -102.1678369 178.99998236 C-102.17299202 188.77190214 -102.17440791 198.54381696 -102.17338079 208.31573796 C-102.17192843 222.16711989 -102.17552125 236.01849734 -102.18052037 249.86987815 C-102.19066198 278.01114386 -102.19372624 306.15240758 -102.19431248 334.29367492 C-102.19437722 337.32225011 -102.19444516 340.3508253 -102.19451588 343.37940049 C-102.19453289 344.13095379 -102.19454989 344.88250709 -102.19456741 345.65683472 C-102.19497594 362.31395868 -102.19716606 378.97108226 -102.19967173 395.62820601 C-102.20070009 402.48780599 -102.20169012 409.34740599 -102.20268798 416.20700598 C-102.20279857 416.96493991 -102.20290916 417.72287383 -102.2030231 418.50377546 C-102.20934681 461.93463285 -102.21347225 505.36548999 -102.21301454 548.79634786 C-102.21299876 550.42153851 -102.21298303 552.04672916 -102.21296733 553.67191981 C-102.21289395 561.00946979 -102.21280578 568.34701976 -102.21271345 575.68456974 C-102.21267233 578.95654984 -102.21263218 582.22852994 -102.21259214 585.50051005 C-102.21257174 587.13819448 -102.21255072 588.77587891 -102.21252908 590.41356334 C-102.2118488 642.2014 -102.21916686 693.98922982 -102.23306936 745.77706456 C-102.23657039 758.82576932 -102.24003986 771.87447409 -102.24333376 784.92317891 C-102.24353663 785.72664468 -102.2437395 786.53011044 -102.24394853 787.35792366 C-102.25016366 812.1221197 -102.25392911 836.88631519 -102.25519174 861.65051198 C-102.25523169 862.42802711 -102.25527164 863.20554224 -102.25531281 864.00661843 C-102.25616609 881.07507729 -102.25642728 898.14353612 -102.25614243 915.21199501 C-102.25604595 921.31940727 -102.2559939 927.42681954 -102.2559637 933.53423181 C-102.25595579 935.0535919 -102.25594558 936.57295199 -102.25593308 938.09231208 C-102.25575678 962.29840314 -102.26145372 986.50448835 -102.27008689 1010.71057773 C-102.27873803 1035.09093815 -102.28092704 1059.47129046 -102.27432557 1083.85165177 C-102.27023119 1098.97753784 -102.27146621 1114.10340257 -102.28171711 1129.22928663 C-102.2877039 1138.87717012 -102.28643615 1148.52503499 -102.27924661 1158.17291762 C-102.27535413 1163.67170422 -102.27462103 1169.17044108 -102.28270396 1174.66922423 C-102.28999781 1179.67499362 -102.2880286 1184.68067198 -102.27878009 1189.68643735 C-102.27706361 1191.4827761 -102.2786713 1193.27912203 -102.2840813 1195.07545345 C-102.37788171 1228.46639849 -92.90555333 1257.1448679 -69.15225881 1281.3151505 C-64.17731116 1286.25820248 -58.9971827 1290.41711319 -53.02725881 1294.1276505 C-52.12749319 1294.71030675 -51.22772756 1295.292963 -50.30069631 1295.8932755 C-29.66588731 1308.68574469 -7.63451161 1311.28596228 16.15581232 1311.25628495 C18.01873658 1311.25763247 19.88166056 1311.25941686 21.74458402 1311.26159719 C26.87054213 1311.26632361 31.99648245 1311.26482667 37.12244142 1311.26231941 C42.69665363 1311.26068618 48.27086204 1311.2648273 53.84507304 1311.26822859 C63.61699282 1311.2733837 73.38890765 1311.2747996 83.16082865 1311.27377248 C97.01221058 1311.27232012 110.86358803 1311.27591293 124.71496884 1311.28091205 C152.85623455 1311.29105366 180.99749827 1311.29411793 209.1387656 1311.29470416 C212.1673408 1311.29476891 215.19591599 1311.29483685 218.22449118 1311.29490757 C219.35182112 1311.29493308 219.35182112 1311.29493308 220.50192541 1311.2949591 C237.15904937 1311.29536762 253.81617294 1311.29755775 270.4732967 1311.30006341 C277.33289668 1311.30109177 284.19249667 1311.30208181 291.05209666 1311.30307966 C292.18899756 1311.30324555 292.18899756 1311.30324555 293.34886615 1311.30341478 C336.77972353 1311.3097385 380.21058067 1311.31386394 423.64143854 1311.31340623 C425.26662919 1311.31339045 426.89181985 1311.31337471 428.5170105 1311.31335902 C435.85456047 1311.31328564 443.19211045 1311.31319747 450.52966042 1311.31310514 C453.80164053 1311.31306401 457.07362063 1311.31302387 460.34560074 1311.31298382 C461.98328517 1311.31296343 463.6209696 1311.31294241 465.25865403 1311.31292076 C517.04649069 1311.31224049 568.83432051 1311.31955855 620.62215525 1311.33346105 C633.67086001 1311.33696208 646.71956478 1311.34043154 659.7682696 1311.34372544 C660.97346825 1311.34402975 660.97346825 1311.34402975 662.20301434 1311.34434021 C686.96721039 1311.35055534 711.73140587 1311.3543208 736.49560267 1311.35558343 C737.2731178 1311.35562338 738.05063292 1311.35566333 738.85170912 1311.35570449 C755.92016798 1311.35655777 772.98862681 1311.35681896 790.05708569 1311.35653412 C796.16449796 1311.35643763 802.27191023 1311.35638559 808.3793225 1311.35635539 C809.89868259 1311.35634747 811.41804268 1311.35633727 812.93740277 1311.35632476 C837.14349383 1311.35614847 861.34957904 1311.36184541 885.55566842 1311.37047858 C909.93602884 1311.37912971 934.31638115 1311.38131872 958.69674246 1311.37471726 C973.82262853 1311.37062288 988.94849326 1311.3718579 1004.07437731 1311.38210879 C1013.72226081 1311.38809558 1023.37012568 1311.38682783 1033.01800831 1311.37963829 C1038.51679491 1311.37574581 1044.01553177 1311.37501271 1049.51431492 1311.38309564 C1054.5200843 1311.3903895 1059.52576267 1311.38842028 1064.53152804 1311.37917178 C1066.32786679 1311.3774553 1068.12421271 1311.37906299 1069.92054413 1311.38447298 C1102.79990896 1311.47683628 1131.70645576 1302.56963763 1155.41024119 1279.1276505 C1160.58991696 1273.85400434 1165.1054208 1268.44961725 1168.97274119 1262.1276505 C1169.55281931 1261.24206456 1170.13289744 1260.35647862 1170.73055369 1259.44405675 C1183.40503493 1239.22524144 1186.13046899 1216.42558951 1186.10137564 1193.0704205 C1186.10272285 1191.20896437 1186.10450707 1189.34750851 1186.10668787 1187.48605317 C1186.11141844 1182.35950242 1186.10991602 1177.23296944 1186.1074101 1172.10641782 C1186.10577793 1166.53328671 1186.10991711 1160.96015942 1186.11331928 1155.38702953 C1186.11847613 1145.61542736 1186.11988998 1135.84383015 1186.11886317 1126.07222676 C1186.11741121 1112.22110451 1186.12100266 1098.36998674 1186.12600274 1084.51886562 C1186.13614626 1056.3782163 1186.13920869 1028.23756897 1186.13979485 1000.09691803 C1186.1398596 997.06802069 1186.13992754 994.03912335 1186.13999826 991.01022601 C1186.14001526 990.25859467 1186.14003227 989.50696332 1186.14004979 988.73255527 C1186.14045827 972.07530022 1186.14264828 955.41804556 1186.1451541 938.76079072 C1186.14618246 931.9015451 1186.14717249 925.04229947 1186.14817035 918.18305385 C1186.14828094 917.42516078 1186.14839153 916.6672677 1186.14850547 915.88640817 C1186.15482957 872.45523776 1186.15895459 829.0240676 1186.15849692 785.5928967 C1186.15848114 783.96756383 1186.1584654 782.34223096 1186.15844971 780.71689809 C1186.15837632 773.37868144 1186.15828815 766.0404648 1186.15819582 758.70224815 C1186.1581547 755.42996271 1186.15811455 752.15767727 1186.15807451 748.88539183 C1186.15805412 747.24755394 1186.1580331 745.60971605 1186.15801145 743.97187816 C1186.15733124 692.18411837 1186.16464795 640.39636541 1186.17855173 588.60860753 C1186.18205278 575.56109359 1186.18552224 562.51357964 1186.18881613 549.46606565 C1186.189019 548.66267033 1186.18922188 547.85927501 1186.1894309 547.03153438 C1186.19564635 522.26821703 1186.19941155 497.50490025 1186.20067412 472.74158216 C1186.20071407 471.96405344 1186.20075402 471.18652473 1186.20079518 470.38543454 C1186.20164848 453.31635256 1186.20190964 436.24727062 1186.2016248 419.17818863 C1186.20152832 413.07045946 1186.20147628 406.96273028 1186.20144607 400.85500111 C1186.20143816 399.33556229 1186.20142795 397.81612346 1186.20141545 396.29668464 C1186.20123917 372.09154363 1186.20693547 347.88640847 1186.21556927 323.68126914 C1186.22422172 299.29987435 1186.2264083 274.91848767 1186.21980794 250.537092 C1186.21571445 235.41127859 1186.21694596 220.28548651 1186.22719948 205.15967512 C1186.23318838 195.51062337 1186.23191615 185.86159025 1186.22472898 176.21253936 C1186.22083828 170.71388809 1186.22009832 165.21528654 1186.22818633 159.71663873 C1186.23548645 154.70980916 1186.23350365 149.70307053 1186.22426246 144.69624495 C1186.22254765 142.90064151 1186.22414819 141.10503088 1186.22956367 139.30943479 C1186.32203286 106.43585024 1177.55376401 77.61931114 1154.16024119 53.8151505 C1131.03873602 31.09336882 1101.76258068 22.61195655 1070.00732428 22.75292039 C1068.13259137 22.75008858 1066.25786008 22.74594263 1064.38313261 22.74061516 C1059.2523042 22.7298129 1054.12164949 22.73755816 1048.99082753 22.7484492 C1043.40094358 22.75698801 1037.81108237 22.74805699 1032.22119963 22.74138504 C1022.43103339 22.73210088 1012.64091852 22.73393844 1002.85075289 22.74311757 C992.35164235 22.75293432 981.85255844 22.75634451 971.35344416 22.75174069 C970.35684817 22.75131014 970.35684817 22.75131014 969.34011893 22.75087088 C966.63390703 22.74967937 963.92769515 22.74844021 961.22148329 22.74714097 C936.0445773 22.73505531 910.86769275 22.73756653 885.69078737 22.74932981 C861.42992721 22.7606482 837.16907659 22.76661683 812.90821368 22.76514173 C811.38374132 22.76505632 809.85926896 22.76497144 808.33479661 22.76488709 C802.20838674 22.76453924 796.08197687 22.76415415 789.95556701 22.76372151 C772.83045047 22.76252696 755.70533399 22.76234497 738.58021742 22.76292443 C737.41052528 22.76296347 737.41052528 22.76296347 736.21720299 22.7630033 C711.37467165 22.76390178 686.53214329 22.76919838 661.6896134 22.777632 C660.88402846 22.77790519 660.07844352 22.77817837 659.24844691 22.77845984 C646.16675172 22.78291337 633.08505663 22.78762821 620.00336154 22.79235873 C568.11920887 22.81110419 516.23507076 22.81752241 464.35091501 22.81197667 C461.0719983 22.81162969 457.79308158 22.81128407 454.51416486 22.81093838 C453.70345977 22.81085278 452.89275468 22.81076717 452.05748278 22.81067898 C443.07896366 22.80973283 434.10044454 22.80882111 425.12192541 22.80795121 C423.91414981 22.80783283 423.91414981 22.80783283 422.6819747 22.80771206 C379.20408143 22.80348873 335.7261898 22.80879578 292.24829733 22.8174625 C290.71531928 22.81776579 289.18234123 22.81806869 287.64936318 22.8183712 C286.89157581 22.81852079 286.13378845 22.81867038 285.35303784 22.81882451 C283.8242378 22.81912593 282.29543775 22.81942692 280.76663771 22.81972747 C276.95803892 22.82047632 273.14944013 22.82123232 269.34084135 22.82200364 C252.65102228 22.82535107 235.96120442 22.82742168 219.27138501 22.82606792 C218.14380271 22.82597711 218.14380271 22.82597711 216.99344096 22.82588447 C213.20877776 22.82557251 209.42411457 22.82523908 205.63945137 22.82489815 C178.27689772 22.82244643 150.91435823 22.82651299 123.55180847 22.84210815 C120.85475138 22.84361805 118.15769427 22.84509809 115.46063715 22.84655499 C114.79874412 22.84691573 114.13685109 22.84727647 113.4549007 22.84764815 C102.34867552 22.85351538 91.24246293 22.85152703 80.13623761 22.8474658 C70.47111718 22.84449029 60.80601766 22.84878592 51.14090223 22.85901437 C45.63319968 22.86464383 40.12554536 22.86714155 34.61784243 22.86084779 C29.60288219 22.85518618 24.58801545 22.85879193 19.57306455 22.86964657 C17.77453621 22.87194515 15.97599965 22.8709369 14.17747628 22.86612402 C-21.89719146 22.77690589 -51.86921588 33.70602602 -76.57804006 60.49386144 Z " fill="#FEFEFE" transform="translate(958.0272588133812,332.8723495006561)"/>
<path d="M0 0 C9.7510784 6.27725672 16.09680267 15.01005501 19.39043379 26.21637392 C20.10381266 29.65362106 19.96269372 33.14207998 19.96398926 36.6385498 C19.96822167 37.49260768 19.97245408 38.34666556 19.97681475 39.22660398 C19.98984809 42.09312837 19.99586716 44.95962494 20.00195312 47.82617188 C20.00989491 49.87936066 20.01828282 51.93254776 20.02708435 53.98573303 C20.04514717 58.40935274 20.06016069 62.83296873 20.07286072 67.25660706 C20.09306796 74.24787782 20.12072192 81.23910682 20.14953613 88.23034668 C20.21475923 104.33305909 20.27016919 120.43580252 20.32552338 136.53855133 C20.37635083 151.29519829 20.42922989 166.05183013 20.49004889 180.80843973 C20.51842372 187.76190051 20.54201048 194.71535634 20.56197357 201.66884613 C20.57534659 205.99019196 20.59275973 210.31151459 20.61128426 214.63284111 C20.61904957 216.64040478 20.62511509 218.64797584 20.62937737 220.65555 C20.63541263 223.39088971 20.6474555 226.12613895 20.66101074 228.8614502 C20.66130673 229.66027854 20.66160272 230.45910689 20.66190767 231.28214216 C20.64389247 236.36283609 20.64389247 236.36283609 21.8125 241.25 C25.55732926 242.49827642 28.89374075 242.7245053 32.8125 242.25 C34.98726401 240.70661909 35.63082637 239.61334727 36.8125 237.25 C36.91887173 235.0964526 36.95919701 232.93955881 36.97071838 230.78341675 C36.97812535 229.77629959 36.97812535 229.77629959 36.98568195 228.74883664 C37.00109661 226.48864756 37.00942825 224.22848698 37.01782227 221.96826172 C37.02739768 220.35222115 37.03740756 218.7361831 37.04782104 217.12014771 C37.07491271 212.72372823 37.09589916 208.32729798 37.11582303 203.93084097 C37.13765635 199.33970762 37.16505799 194.74860766 37.19187927 190.15750122 C37.24184213 181.45942451 37.2867676 172.76132929 37.32990164 164.06321633 C37.37924335 154.16248987 37.43417282 144.2617969 37.48958123 134.36110282 C37.60345641 113.99076641 37.71028337 93.62039803 37.8125 73.25 C40.65543205 74.64779824 43.2829493 76.14831883 45.91796875 77.91015625 C46.72306885 78.44729248 47.52816895 78.98442871 48.35766602 79.5378418 C49.66562134 80.41629761 49.66562134 80.41629761 51 81.3125 C51.92417725 81.9310083 52.84835449 82.5495166 53.80053711 83.18676758 C64.06252793 90.06662542 74.27117744 97.02496254 84.48095703 103.98193359 C89.66383252 107.51181039 94.85422609 111.03061061 100.04400635 114.55032349 C101.80551797 115.74526366 103.5666421 116.94077267 105.32763672 118.13647461 C110.57744916 121.7007397 115.8285966 125.26291239 121.08834839 128.8125 C122.80243786 129.96967086 124.5156286 131.12815952 126.22851562 132.28710938 C128.33620195 133.71278615 130.44545855 135.13614559 132.55664062 136.55664062 C148.2193217 147.16411471 161.15731771 158.01821753 166.40197539 177.02801049 C167.31591582 181.9747689 167.07723709 187.03792675 167.05300903 192.05039978 C167.05471788 193.34269975 167.05642673 194.63499972 167.05818737 195.96646029 C167.06264845 199.54218579 167.05467433 203.11779094 167.04463124 206.69350111 C167.03598114 210.55367306 167.03891801 214.41383842 167.04043579 218.27401733 C167.04148365 224.95830323 167.03521735 231.64255003 167.02396011 238.3268261 C167.00769472 247.99111964 167.00249604 257.65539432 166.99998413 267.31970007 C166.99560866 283.00000933 166.98230357 298.68029775 166.96337891 314.3605957 C166.94501628 329.59106339 166.93086165 344.82152542 166.92236328 360.05200195 C166.92183783 360.9910665 166.92131239 361.93013104 166.92077102 362.89765208 C166.91816091 367.60874005 166.9156335 372.31982806 166.91314721 377.03091609 C166.89241932 416.10395865 166.85719781 455.17697795 166.8125 494.25 C149.83420055 494.36748042 132.85603028 494.45530155 115.87741566 494.50906086 C107.99162413 494.53470021 100.10608704 494.5695726 92.22045898 494.62719727 C85.33688449 494.67747483 78.45349448 494.70939428 71.56974143 494.72044247 C67.93422446 494.72688743 64.29923465 494.74172445 60.66388893 494.77865028 C26.41641444 495.11266616 -3.55887345 487.89056943 -28.87939453 463.70483398 C-41.32142718 451.38055451 -50.72487952 437.31529713 -57 420.9375 C-57.27811523 420.22827393 -57.55623047 419.51904785 -57.84277344 418.78833008 C-62.55511395 405.77486598 -63.63781344 392.0423059 -63.58190918 378.3157196 C-63.58681432 376.79166892 -63.59301151 375.26762195 -63.60036707 373.74358112 C-63.61658246 369.60932084 -63.6144869 365.47525351 -63.6089921 361.34097278 C-63.60629911 356.86176783 -63.62089528 352.38261174 -63.63308716 347.90342712 C-63.65404328 339.15130298 -63.65868787 330.39924521 -63.65689927 321.64709892 C-63.65558751 314.53184801 -63.65941681 307.41661767 -63.66682434 300.30137062 C-63.66892367 298.24571779 -63.67102127 296.19006495 -63.67311716 294.13441211 C-63.67416069 293.11105755 -63.67520422 292.08770299 -63.67627937 291.03333769 C-63.69513961 271.72349035 -63.69414354 252.41368108 -63.68731004 233.10382835 C-63.68172872 215.45287257 -63.70259264 197.80206167 -63.73567051 180.15113976 C-63.76942413 161.99801194 -63.78457436 143.84495352 -63.77995348 125.69179374 C-63.77771165 115.51155909 -63.78291117 105.33145859 -63.80784607 95.15125084 C-63.82887992 86.49070381 -63.83242969 77.83036463 -63.81354648 69.16980901 C-63.80440437 64.75500908 -63.80319914 60.34059651 -63.82390213 55.92582703 C-63.84267074 51.87875937 -63.83804363 47.83239478 -63.81535631 43.7853534 C-63.81118558 42.32737935 -63.81531892 40.86935076 -63.82895225 39.41143449 C-63.94547462 26.03187715 -60.91405583 16.11119578 -51.50390625 6.4375 C-36.79816727 -7.44987576 -17.85527934 -10.02683855 0 0 Z " fill="#231F1F" transform="translate(1061.1875,1101.75)"/>
<path d="M0 0 C1.07032471 -0.01023193 2.14064941 -0.02046387 3.2434082 -0.03100586 C17.08453134 0.12310771 30.05807512 4.35311137 40.265625 13.9453125 C52.50538223 27.99021378 54.57228547 44.54353629 54.61108398 62.484375 C54.62134952 64.46808925 54.63161715 66.45180348 54.64196312 68.43551731 C54.65215081 70.55559026 54.66002494 72.675661 54.66729546 74.79574585 C54.68286296 79.23667179 54.70681473 83.67752891 54.73219299 88.1184082 C54.80308097 100.74279402 54.86294875 113.36721933 54.91430664 125.99169922 C54.94278483 132.97384567 54.97825964 139.95592358 55.02096039 146.93799782 C55.0431461 150.62163124 55.06174528 154.30520234 55.07140923 157.9888916 C54.94360785 189.43365553 54.94360785 189.43365553 63.4375 219.4375 C57.1875 221 57.1875 221 55.10913086 221.51904297 C50.22414164 222.73937685 45.34029093 223.96416859 40.45703125 225.19140625 C37.97135544 225.81510923 35.48567835 226.43880712 33 227.0625 C31.80407227 227.36357666 30.60814453 227.66465332 29.37597656 227.97485352 C26.06531458 228.80483028 22.75240181 229.62463846 19.4375 230.4375 C18.56722168 230.65374023 17.69694336 230.86998047 16.80029297 231.09277344 C16.02959473 231.27614258 15.25889648 231.45951172 14.46484375 231.6484375 C13.821521 231.8036084 13.17819824 231.9587793 12.51538086 232.11865234 C9.85183322 232.52736968 7.13222371 232.4375 4.4375 232.4375 C2.1275 226.4975 -0.1825 220.5575 -2.5625 214.4375 C-3.7175 216.066875 -4.8725 217.69625 -6.0625 219.375 C-20.5821962 239.1561889 -39.33715475 250.66708101 -63.30859375 256.0546875 C-68.28709776 256.64039385 -73.24091322 256.70364818 -78.25 256.75 C-79.27544922 256.77900391 -80.30089844 256.80800781 -81.35742188 256.83789062 C-92.81876486 256.9320141 -101.45594764 253.174868 -110.5625 246.4375 C-111.42875 245.86 -112.295 245.2825 -113.1875 244.6875 C-122.54893682 235.81877038 -128.7535209 221.86720514 -129.85302734 209.05102539 C-129.9027629 205.20026331 -129.94973545 201.35105219 -129.9375 197.5 C-129.9362915 196.80397675 -129.93508301 196.10795349 -129.93383789 195.39083862 C-129.83862882 175.24860457 -125.22309537 156.4531887 -110.90087891 141.52905273 C-93.50463263 124.3309616 -69.81597654 114.81334261 -47.6875 105.3125 C-25.56200939 96.67844956 -25.56200939 96.67844956 -10.375 79.65625 C-9.27898104 75.31432872 -9.06177109 71.15376299 -9 66.6875 C-8.98509521 65.87120117 -8.97019043 65.05490234 -8.95483398 64.21386719 C-9.04794463 58.82997847 -10.03349867 55.71847544 -13.5625 51.4375 C-18.1421273 47.28721276 -22.88295171 47.13897506 -28.84765625 47.2265625 C-37.91702311 47.93123273 -46.07650718 51.70663858 -52.3515625 58.32421875 C-58.14447634 65.58676344 -59.98872983 72.77064934 -60.25 81.9375 C-60.28416016 82.75992188 -60.31832031 83.58234375 -60.35351562 84.4296875 C-60.4349988 86.4318455 -60.50044575 88.43464568 -60.5625 90.4375 C-75.22430789 94.0304362 -89.89540948 97.56944929 -104.625 100.875 C-106.33490112 101.26292725 -106.33490112 101.26292725 -108.0793457 101.65869141 C-109.13726318 101.89378418 -110.19518066 102.12887695 -111.28515625 102.37109375 C-112.67359741 102.6813147 -112.67359741 102.6813147 -114.09008789 102.99780273 C-116.5625 103.4375 -116.5625 103.4375 -120.5625 103.4375 C-121.50888825 79.35717668 -115.64937777 57.85323621 -100.125 39.0625 C-82.7012512 20.322999 -57.69028241 10.84173628 -33.5625 4.4375 C-32.71816406 4.2101416 -31.87382813 3.9827832 -31.00390625 3.74853516 C-20.67889079 1.06196613 -10.66699862 0.07787234 0 0 Z " fill="#241F1F" transform="translate(1838.5625,717.5625)"/>
<path d="M0 0 C16.42677465 14.17890023 24.42641061 33.51917067 26.28515625 54.9296875 C26.41213333 58.69098043 26.40206821 62.44786422 26.3828125 66.2109375 C26.38069008 67.79207336 26.38069008 67.79207336 26.37852478 69.40515137 C26.37296133 72.74669321 26.36041566 76.08816617 26.34765625 79.4296875 C26.34263652 81.70572819 26.33807445 83.98176995 26.33398438 86.2578125 C26.32300389 91.81512737 26.30630247 97.37240251 26.28515625 102.9296875 C7.55622639 107.67517202 -11.23019376 112.10094375 -30.07279968 116.37080383 C-33.82881664 117.22228999 -37.58440326 118.07566285 -41.33984375 118.9296875 C-42.08775177 119.09961212 -42.83565979 119.26953674 -43.60623169 119.4446106 C-54.05791772 121.82245799 -64.46716792 124.33007108 -74.85400391 126.97900391 C-82.42912533 128.89731771 -90.02766874 130.52529976 -97.71484375 131.9296875 C-97.43279527 135.86793674 -97.13740275 139.80508222 -96.83984375 143.7421875 C-96.76121094 144.84240234 -96.68257812 145.94261719 -96.6015625 147.07617188 C-95.2954134 165.90997532 -95.2954134 165.90997532 -85.87109375 181.76171875 C-80.36412951 185.81027085 -75.36879294 186.45808935 -68.71484375 185.9296875 C-59.78721699 184.5137467 -50.99020034 181.81064429 -44.8671875 174.8203125 C-39.52758916 167.21105688 -37.34134545 159.60027547 -36.52734375 150.4296875 C-36.44548828 149.60726562 -36.36363281 148.78484375 -36.27929688 147.9375 C-36.08145737 145.93582975 -35.89675651 143.93286797 -35.71484375 141.9296875 C-34.26730713 141.56943481 -34.26730713 141.56943481 -32.79052734 141.2019043 C-26.36409294 139.60009276 -19.93936522 137.99297327 -13.52496338 136.34353638 C-10.81275111 135.64662404 -8.09906606 134.95554508 -5.38525391 134.26489258 C-4.01027282 133.91351582 -2.63592993 133.55963312 -1.26220703 133.20336914 C6.5484082 131.18040325 14.19745974 129.3479335 22.28515625 128.9296875 C23.12829515 157.37781861 16.90529658 182.06206551 -3.13769531 203.35693359 C-15.18364384 215.36931755 -29.87913229 223.13871341 -45.71484375 228.9296875 C-46.89820313 229.373125 -48.0815625 229.8165625 -49.30078125 230.2734375 C-64.40885378 235.64810972 -79.09741173 238.27968118 -95.15234375 238.4296875 C-96.30049561 238.44813721 -97.44864746 238.46658691 -98.6315918 238.4855957 C-112.88198503 238.38199751 -127.4141518 233.5422882 -138.03515625 223.734375 C-163.45809524 196.41949637 -162.95543306 154.88663424 -161.92626953 119.93847656 C-160.98998945 94.78595957 -156.69309372 69.28383383 -144.71484375 46.9296875 C-144.14765625 45.86363281 -143.58046875 44.79757812 -142.99609375 43.69921875 C-128.67478002 18.01849936 -105.01285082 1.33910793 -77.06005859 -6.79736328 C-72.63526847 -7.99943 -68.1902842 -9.07473635 -63.71484375 -10.0703125 C-62.53664063 -10.33585938 -61.3584375 -10.60140625 -60.14453125 -10.875 C-39.78353591 -14.67641345 -16.92475221 -12.90664557 0 0 Z " fill="#241F1F" transform="translate(1525.71484375,813.0703125)"/>
<path d="M0 0 C12.55883864 10.30337374 16.64326817 24.42229564 18.49340963 40.13340807 C19.11176143 46.67753213 18.94506671 53.27555274 18.91455078 59.84130859 C18.91398525 61.56748956 18.914306 63.293671 18.91543579 65.01985168 C18.91600476 69.66147979 18.90432509 74.30300249 18.89028788 78.9446063 C18.87770373 83.81191173 18.876604 88.67922012 18.87423706 93.54653931 C18.86804472 102.74362283 18.85166459 111.94065826 18.83153808 121.1377207 C18.8091088 131.61667841 18.79816805 142.09563852 18.78814721 152.57461429 C18.76729615 174.1122696 18.73216427 195.64988176 18.6875 217.1875 C15.53713742 218.82614822 12.71839829 219.74676118 9.234375 220.484375 C8.15140137 220.71809814 7.06842773 220.95182129 5.95263672 221.19262695 C4.7926416 221.43843506 3.63264648 221.68424316 2.4375 221.9375 C-7.88749345 224.16750364 -18.14279911 226.57443325 -28.35644531 229.27050781 C-29.27264648 229.50737305 -30.18884766 229.74423828 -31.1328125 229.98828125 C-32.31254639 230.30019409 -32.31254639 230.30019409 -33.51611328 230.6184082 C-36.01942347 231.12785608 -38.4498744 231.4506087 -40.98727417 231.72306824 C-41.79735365 231.81074557 -42.60743313 231.89842291 -43.44206047 231.98875713 C-44.05930552 232.05434228 -44.67655056 232.11992743 -45.3125 232.1875 C-45.31488835 231.35150583 -45.31727671 230.51551167 -45.31973743 229.65418434 C-45.37894005 209.28830333 -45.45452383 188.92254014 -45.54821491 168.55678749 C-45.59313099 158.70795387 -45.63255531 148.85915606 -45.65893555 139.01025391 C-45.68194955 130.42336445 -45.71538555 121.83658876 -45.76120156 113.2497896 C-45.78508792 108.70548668 -45.80384672 104.16129612 -45.81011391 99.61693192 C-45.81618556 95.33396116 -45.83626012 91.0512777 -45.86677551 86.76841354 C-45.87552251 85.20200347 -45.87928528 83.6355558 -45.87750816 82.06912231 C-45.74285663 67.55059394 -45.74285663 67.55059394 -51.75 54.6875 C-55.77738118 50.75834763 -58.69658389 49.852674 -64.3125 49.6875 C-73.27256558 49.83851234 -80.63181527 53.38499283 -87.1875 59.4375 C-98.64367154 72.20374468 -101.42532555 87.77840547 -101.51782227 104.35522461 C-101.52772186 105.45840027 -101.53762146 106.56157593 -101.54782104 107.69818115 C-101.57929842 111.32871385 -101.60413893 114.9592596 -101.62890625 118.58984375 C-101.64948766 121.1133304 -101.67048444 123.63681369 -101.69187927 126.16029358 C-101.74135182 132.11346123 -101.78664869 138.06665129 -101.82990164 144.01986653 C-101.87940487 150.80106716 -101.93427417 157.58222111 -101.98958123 164.3633765 C-102.10316708 178.30470737 -102.21005641 192.24608312 -102.3125 206.1875 C-103.24039841 205.6717894 -103.24039841 205.6717894 -104.18704224 205.1456604 C-104.99817474 204.69492157 -105.80930725 204.24418274 -106.64501953 203.77978516 C-107.44924347 203.33285309 -108.25346741 202.88592102 -109.08206177 202.42544556 C-120.49486795 196.09107032 -130.64213009 192.65253599 -143.8125 192.8125 C-144.76769531 192.80089844 -145.72289062 192.78929687 -146.70703125 192.77734375 C-148.13595703 192.78314453 -148.13595703 192.78314453 -149.59375 192.7890625 C-150.42970703 192.79244629 -151.26566406 192.79583008 -152.12695312 192.79931641 C-156.95277665 193.38738043 -161.62227987 194.90834906 -166.3125 196.1875 C-166.3125 141.4075 -166.3125 86.6275 -166.3125 30.1875 C-161.95451409 28.94236117 -157.63312211 27.7356872 -153.2421875 26.63671875 C-152.10789307 26.35256104 -150.97359863 26.06840332 -149.80493164 25.77563477 C-143.64201627 24.24124894 -137.47807569 22.71116236 -131.3125 21.1875 C-130.23145996 20.91905273 -129.15041992 20.65060547 -128.03662109 20.37402344 C-125.15098157 19.65941387 -122.26347596 18.95304415 -119.375 18.25 C-118.52470215 18.03883545 -117.6744043 17.8276709 -116.79833984 17.61010742 C-116.01023926 17.42037354 -115.22213867 17.23063965 -114.41015625 17.03515625 C-113.73476807 16.87023682 -113.05937988 16.70531738 -112.36352539 16.53540039 C-110.3125 16.1875 -110.3125 16.1875 -105.3125 16.1875 C-104.8175 27.5725 -104.8175 27.5725 -104.3125 39.1875 C-103.19875 37.434375 -102.085 35.68125 -100.9375 33.875 C-86.53166364 12.39261244 -65.58329343 -0.96020422 -40.515625 -6.421875 C-26.31540326 -8.15360936 -12.08391815 -8.39348505 0 0 Z " fill="#24201F" transform="translate(1182.3125,884.8125)"/>
<path d="M0 0 C13.1190894 12.07374363 17.15123797 30.22662408 17.99951172 47.39501953 C18.11444595 52.2270066 18.04197242 57.04516824 17.875 61.875 C17.22466797 62.01486328 16.57433594 62.15472656 15.90429688 62.29882812 C0.23808229 65.68464657 -15.32624241 69.34837759 -30.84960938 73.33398438 C-31.84528931 73.58766281 -31.84528931 73.58766281 -32.86108398 73.84646606 C-34.66658979 74.30670935 -36.47102841 74.77113337 -38.27539062 75.23583984 C-41.125 75.875 -41.125 75.875 -44.125 75.875 C-44.1343457 75.17004395 -44.14369141 74.46508789 -44.15332031 73.73876953 C-44.20756862 70.49184848 -44.29110724 67.24628512 -44.375 64 C-44.38917969 62.89140625 -44.40335938 61.7828125 -44.41796875 60.640625 C-44.66082317 52.38357473 -45.8455082 44.97436475 -51.125 38.375 C-56.3470831 34.45843767 -60.7522339 34.2973248 -67.125 34.875 C-76.55834289 36.58884398 -84.79799661 41.29370071 -90.78515625 48.83984375 C-101.04864011 64.42956705 -102.43951417 83.95104241 -102.42578125 102.0859375 C-102.43220894 104.02456161 -102.43220894 104.02456161 -102.43876648 106.00234985 C-102.44614232 108.7131974 -102.44600121 111.42391452 -102.44067383 114.13476562 C-102.43603859 116.87484127 -102.44298719 119.61447352 -102.46118164 122.35449219 C-103.61669975 154.38001261 -103.61669975 154.38001261 -90.6875 182.53515625 C-85.45158889 187.02495003 -79.67893867 186.25613929 -73.125 185.875 C-65.94142457 185.16010164 -59.69423663 182.4986956 -54.125 177.875 C-43.46132332 164.13314861 -43.74816572 147.47088696 -43.125 130.875 C-22.85869948 125.87502989 -2.53352428 121.25357075 17.875 116.875 C18.76650838 149.46458398 13.13606252 178.81443522 -9.5 203.4609375 C-32.42204533 227.31419092 -67.53915059 238.43232992 -99.97729492 239.34277344 C-110.00902367 239.44155659 -118.85730956 239.01803295 -128.125 234.875 C-128.84945313 234.59785156 -129.57390625 234.32070313 -130.3203125 234.03515625 C-142.93258915 228.66875619 -152.05794205 216.204841 -157.125 203.875 C-161.63585918 191.78249519 -164.52642486 179.66360112 -166.125 166.875 C-166.22796387 166.10542969 -166.33092773 165.33585938 -166.43701172 164.54296875 C-169.59608278 140.14875175 -170.26458426 113.18865172 -166.125 88.875 C-166.00141113 88.11735352 -165.87782227 87.35970703 -165.75048828 86.57910156 C-160.9239363 58.01761457 -148.62516881 31.66295605 -125 13.875 C-92.87555506 -8.64295798 -34.149418 -27.30650027 0 0 Z " fill="#241F1F" transform="translate(2088.125,681.125)"/>
<path d="M0 0 C0 122.1 0 244.2 0 370 C-53 383.25 -53 383.25 -67 385 C-67 262.9 -67 140.8 -67 15 C-54.13 12.03 -41.26 9.06 -28 6 C-15.99652141 3.2078718 -15.99652141 3.2078718 -3.99487305 0.40795898 C-2 0 -2 0 0 0 Z " fill="#231F1F" transform="translate(980,784)"/>
<path d="M0 0 C0 16.83 0 33.66 0 51 C7.59 49.02 15.18 47.04 23 45 C39.21052632 41 39.21052632 41 45 41 C45 56.51 45 72.02 45 88 C39.245625 89.464375 33.49125 90.92875 27.5625 92.4375 C25.76498291 92.89825928 23.96746582 93.35901855 22.11547852 93.83374023 C20.66174054 94.20083141 19.20789016 94.56747787 17.75390625 94.93359375 C17.02264526 95.12280396 16.29138428 95.31201416 15.53796387 95.50695801 C11.77271193 96.44905035 8.09301443 97.15566564 4.229599 97.55873108 C3.43332564 97.64306428 2.63705229 97.72739748 1.81664944 97.81428623 C0.91740797 97.90621455 0.91740797 97.90621455 0 98 C0.06084655 115.38689424 0.13856216 132.77362347 0.23571491 150.1603508 C0.28045421 158.23546788 0.31991754 166.310543 0.34643555 174.38574219 C0.36959459 181.43382518 0.40318728 188.4817729 0.44870156 195.5297482 C0.47239574 199.25276945 0.49127864 202.97565875 0.49761391 206.69875336 C0.54484655 231.22229087 0.98957655 254.98833174 13 277 C13.33 277.66 13.66 278.32 14 279 C-2.35353552 283.16797207 -18.71998379 287.24177159 -35.1875 290.9375 C-35.85089386 291.08647736 -36.51428772 291.23545471 -37.19778442 291.38894653 C-48.40223681 293.90008184 -48.40223681 293.90008184 -54 295 C-65.26212233 272.36141907 -64.45056129 245.67765895 -64.30418181 221.00365376 C-64.28508555 217.22547078 -64.28363922 213.44727593 -64.28010559 209.66905212 C-64.27087978 202.55468199 -64.24639821 195.44045458 -64.21605712 188.32614654 C-64.18221331 180.20970569 -64.16595274 172.09325704 -64.15097082 163.97676289 C-64.11983696 147.31775915 -64.06726654 130.65889795 -64 114 C-65.30203369 114.31807617 -65.30203369 114.31807617 -66.63037109 114.64257812 C-69.84656546 115.42712091 -73.06324324 116.2096174 -76.28027344 116.99072266 C-77.67337717 117.32941897 -79.06628227 117.66893332 -80.45898438 118.00927734 C-82.45912027 118.49791453 -84.4599485 118.98361983 -86.4609375 119.46875 C-87.66540527 119.76201172 -88.86987305 120.05527344 -90.11083984 120.35742188 C-93 121 -93 121 -95 121 C-95 105.16 -95 89.32 -95 73 C-90.99875 72.01 -86.9975 71.02 -82.875 70 C-81.62444824 69.68675781 -80.37389648 69.37351562 -79.08544922 69.05078125 C-78.08529785 68.80714844 -77.08514648 68.56351563 -76.0546875 68.3125 C-75.03874512 68.06113281 -74.02280273 67.80976562 -72.97607422 67.55078125 C-70 67 -70 67 -64 67 C-64 49.51 -64 32.02 -64 14 C-59.50375 12.989375 -55.0075 11.97875 -50.375 10.9375 C-41.69743673 8.9852115 -33.02452252 7.01690754 -24.3671875 4.9765625 C-23.67986542 4.81481033 -22.99254333 4.65305817 -22.28439331 4.48640442 C-18.97541117 3.70705886 -15.66754102 2.92352156 -12.36083984 2.13452148 C-11.17441895 1.85423096 -9.98799805 1.57394043 -8.765625 1.28515625 C-7.72180664 1.03644775 -6.67798828 0.78773926 -5.60253906 0.53149414 C-3 0 -3 0 0 0 Z " fill="#231F1F" transform="translate(1312,794)"/>
<path d="M0 0 C0 19.47 0 38.94 0 59 C-7.425 59.99 -7.425 59.99 -15 61 C-28.85609383 63.62536515 -43.96817342 69.69002039 -53 81 C-61.71518305 94.39189583 -64.45039238 108.47683149 -64.43237305 124.32739258 C-64.44141639 125.70861166 -64.45174978 127.0898228 -64.46325684 128.47102356 C-64.49055169 132.17676908 -64.50007334 135.88236123 -64.50611091 139.58819413 C-64.51556721 143.47728809 -64.54177572 147.36627065 -64.56611633 151.2552948 C-64.60958721 158.6001111 -64.63825282 165.94490554 -64.66143972 173.28981084 C-64.68859622 181.66002997 -64.73250074 190.03013597 -64.77772844 198.40027392 C-64.87029626 215.60012412 -64.94210372 232.79999883 -65 250 C-80.81030145 254.53177363 -96.83702896 258.2458424 -112.875 261.875 C-113.56601807 262.03197357 -114.25703613 262.18894714 -114.96899414 262.35067749 C-116.93445789 262.79633837 -118.9008047 263.23809938 -120.8671875 263.6796875 C-122.00269043 263.93476074 -123.13819336 264.18983398 -124.30810547 264.45263672 C-127 265 -127 265 -129 265 C-129 188.77 -129 112.54 -129 34 C-96.66976744 25.91744186 -96.66976744 25.91744186 -83.8125 23.0625 C-82.45501433 22.75744521 -81.09759275 22.45210506 -79.74023438 22.14648438 C-70.15649802 20 -70.15649802 20 -69 20 C-68.67 29.24 -68.34 38.48 -68 48 C-65.525 43.05 -65.525 43.05 -63 38 C-61.46000707 35.57017672 -59.93850886 33.25172239 -58.25 30.9375 C-57.81880859 30.34316162 -57.38761719 29.74882324 -56.94335938 29.13647461 C-42.5521491 9.7120281 -24.24240848 0 0 0 Z " fill="#241F1F" transform="translate(1704,749)"/>
<path d="M0 0 C0 21.78 0 43.56 0 66 C-8.7553125 68.1346875 -8.7553125 68.1346875 -17.6875 70.3125 C-19.50080811 70.75505127 -21.31411621 71.19760254 -23.18237305 71.65356445 C-27.05394163 72.59755529 -30.92702163 73.53517488 -34.80105591 74.46899414 C-36.20549351 74.80814082 -37.6095653 75.14880834 -39.01315308 75.49145508 C-40.78097982 75.92254121 -42.55059357 76.34628009 -44.3203125 76.76953125 C-45.2808252 77.0013208 -46.24133789 77.23311035 -47.23095703 77.47192383 C-57.7092424 79.47020731 -67.5396626 77.96597686 -76.625 72.375 C-85.79027859 65.75203367 -91.16199531 57.99726817 -94 47 C-95.02685892 39.60464103 -93.74273571 32.8963437 -91 26 C-90.72285156 24.98421875 -90.44570313 23.9684375 -90.16015625 22.921875 C-86.58842982 18.09067903 -81.42568687 17.7854699 -75.75 16.5625 C-74.51088867 16.2744751 -73.27177734 15.9864502 -71.99511719 15.68969727 C-68.6774785 14.91920011 -65.35374078 14.17951573 -62.02734375 13.44787598 C-58.71309653 12.71570034 -55.40365514 11.96245317 -52.09375 11.2109375 C-48.18038978 10.32370924 -44.26618334 9.44109765 -40.34912109 8.5703125 C-30.98370184 6.48357521 -21.67377084 4.22286921 -12.39550781 1.77709961 C-11.48897461 1.5425708 -10.58244141 1.30804199 -9.6484375 1.06640625 C-8.86645996 0.85959229 -8.08448242 0.65277832 -7.27880859 0.43969727 C-5 0 -5 0 0 0 Z " fill="#241F1F" transform="translate(980,1342)"/>
<path d="M0 0 C0 21.78 0 43.56 0 66 C-15.75827144 70.50236327 -15.75827144 70.50236327 -22.15625 71.88671875 C-23.1706012 72.10773003 -23.1706012 72.10773003 -24.20544434 72.33320618 C-25.60264782 72.63678285 -27.00031053 72.93825409 -28.3984375 73.23754883 C-30.527103 73.69330284 -32.65424988 74.15568208 -34.78125 74.61914062 C-63.19186876 80.77484353 -63.19186876 80.77484353 -75 74 C-84.68680149 67.75323649 -90.61057477 59.7405368 -93.52734375 48.5625 C-95.28078636 39.05623264 -93.89921564 30.20286312 -88.70532227 21.94042969 C-86.68093852 19.63695052 -85.50288512 19.23629077 -82.546875 18.54296875 C-81.63405762 18.32133057 -80.72124023 18.09969238 -79.78076172 17.87133789 C-78.78061035 17.64567139 -77.78045898 17.42000488 -76.75 17.1875 C-75.69441895 16.93669678 -74.63883789 16.68589355 -73.55126953 16.42749023 C-70.03826494 15.59947938 -66.52010947 14.79723734 -63 14 C-61.78473633 13.7225293 -60.56947266 13.44505859 -59.31738281 13.15917969 C-53.55332542 11.84472824 -47.78686963 10.54166344 -42.01689148 9.25344849 C-35.81220576 7.86740296 -29.61516444 6.45294925 -23.42578125 5 C-22.7301709 4.83676743 -22.03456055 4.67353485 -21.31787109 4.50535583 C-17.96678939 3.71802592 -14.61655809 2.92722063 -11.26708984 2.13305664 C-10.07937988 1.85324951 -8.89166992 1.57344238 -7.66796875 1.28515625 C-6.61891357 1.03644775 -5.5698584 0.78773926 -4.48901367 0.53149414 C-2 0 -2 0 0 0 Z " fill="#241F1F" transform="translate(980,1257)"/>
<path d="M0 0 C0 21.78 0 43.56 0 66 C-8.91 67.98 -17.82 69.96 -27 72 C-30.650625 72.94875 -34.30125 73.8975 -38.0625 74.875 C-49.07433999 77.50659981 -62.70819199 80.09301543 -73.125 74.25390625 C-73.74375 73.84011719 -74.3625 73.42632813 -75 73 C-75.680625 72.57589844 -76.36125 72.15179687 -77.0625 71.71484375 C-86.32951707 65.41397419 -91.68231822 56.91641831 -94 46 C-95.12255577 36.97326284 -93.52113133 28.73057508 -88.7331543 20.93823242 C-86.57574004 18.52553884 -85.25235835 18.23322817 -82.1015625 17.61328125 C-81.08312256 17.40171387 -80.06468262 17.19014648 -79.01538086 16.97216797 C-77.89655518 16.75447754 -76.77772949 16.53678711 -75.625 16.3125 C-73.1801624 15.80474801 -70.73619632 15.29278728 -68.29296875 14.77734375 C-67.64020462 14.64084412 -66.98744049 14.50434448 -66.31489563 14.3637085 C-57.03458327 12.4048145 -47.83963734 10.08038124 -38.63287354 7.80557251 C-30.1670434 5.71556427 -21.69404316 3.66220755 -13.19140625 1.7265625 C-12.44406723 1.55264984 -11.69672821 1.37873718 -10.92674255 1.19955444 C-7.11445594 0.34401068 -3.95411825 0 0 0 Z " fill="#241F1F" transform="translate(980,1173)"/>
<path d="M0 0 C7.74736896 5.43189591 12.07159973 15.21479918 15 24 C16.08573246 36.37735 14.13609235 46.62451791 6.75 56.9375 C3.06567818 61.2822942 -1.02017746 64.27846907 -6 67 C-6.71414062 67.41378906 -7.42828125 67.82757812 -8.1640625 68.25390625 C-16.83795468 72.53123796 -27.70257453 72.29843824 -37.03125 70.375 C-48.82170377 66.19610499 -55.93989696 57.28018476 -61.8125 46.75 C-65.65298231 37.8562515 -65.22502616 26.33502771 -62.03125 17.30078125 C-56.99680265 6.0686241 -48.70815042 -1.3103833 -37.48046875 -6.08984375 C-24.25947136 -10.94101287 -11.64586288 -6.90065632 0 0 Z " fill="#F9B613" transform="translate(2091,572)"/>
<path d="M0 0 C0.04992286 5.06793834 0.08596378 10.13572942 0.10986328 15.20385742 C0.1198403 16.92328387 0.13342675 18.64269372 0.15087891 20.36206055 C0.31995068 37.46317353 -0.48676868 54.83749724 -13 68 C-21.64758129 75.87809312 -31.57412885 79.50437023 -43.21484375 79.33203125 C-48.65885838 78.6830253 -51.95776009 76.21657746 -55.6015625 72.26171875 C-60.9441021 64.57622184 -60.04062109 54.0731329 -58.5234375 45.21875 C-55.50915568 34.90482184 -48.20950817 26.75295866 -39.14086914 21.27197266 C-35.90875875 19.50771473 -32.65112056 17.80606763 -29.375 16.125 C-20.74276988 11.60214666 -12.39961878 6.96013654 -4.34375 1.4765625 C-2 0 -2 0 0 0 Z " fill="#FBB713" transform="translate(1830,843)"/>
<path d="M0 0 C6.76206831 5.68661954 8.90868561 13.5175109 10 22 C10.11352991 25.29307919 10.09475044 28.58049352 10.0625 31.875 C10.05798828 32.75414062 10.05347656 33.63328125 10.04882812 34.5390625 C10.03712337 36.69273803 10.01919069 38.84637817 10 41 C-10.79442217 46.78221411 -31.83936826 51.75733286 -53 56 C-53.67643309 39.6904466 -50.85389157 21.80265846 -40 9 C-29.84361963 -1.9181089 -13.9669154 -8.4834607 0 0 Z " fill="#F9B613" transform="translate(1481,850)"/>
<path d="M0 0 C7.74736896 5.43189591 12.07159973 15.21479918 15 24 C16.08573246 36.37735 14.13609235 46.62451791 6.75 56.9375 C3.06567818 61.2822942 -1.02017746 64.27846907 -6 67 C-6.71414062 67.41378906 -7.42828125 67.82757812 -8.1640625 68.25390625 C-16.83795468 72.53123796 -27.70257453 72.29843824 -37.03125 70.375 C-48.82170377 66.19610499 -55.93989696 57.28018476 -61.8125 46.75 C-65.65298231 37.8562515 -65.22502616 26.33502771 -62.03125 17.30078125 C-56.99680265 6.0686241 -48.70815042 -1.3103833 -37.48046875 -6.08984375 C-24.25947136 -10.94101287 -11.64586288 -6.90065632 0 0 Z M-53 11 C-58.94083288 20.45879152 -60.69926615 30.00525987 -58.3515625 41.05078125 C-54.95134803 51.3240788 -48.64438705 59.02277826 -39 64 C-30.86271451 67.3168907 -20.74363427 67.58464138 -12.3984375 64.796875 C-2.33028283 59.85023821 4.81365444 53.3431943 8.890625 42.66796875 C11.33908872 32.961559 10.74108469 23.84904315 6 15 C0.4944556 5.86209939 -6.74194937 0.72753513 -16.92578125 -2.30078125 C-31.20163468 -5.54776697 -43.5908369 0.05710885 -53 11 Z " fill="#2E271F" transform="translate(2091,572)"/>
<path d="M0 0 C21 0 21 0 27 4 C29.96931456 8.45397184 29.51259217 12.77462015 29 18 C27.6168113 21.08073848 26.3615433 22.6384567 24 25 C25.21429687 25.98613281 25.21429687 25.98613281 26.453125 26.9921875 C29.58048064 30.68553696 29.74156011 33.49149912 29.75 38.125 C29.81256971 43.63965035 29.81256971 43.63965035 31 49 C29.72125 49.061875 28.4425 49.12375 27.125 49.1875 C26.04605469 49.23970703 26.04605469 49.23970703 24.9453125 49.29296875 C24.30335938 49.19628906 23.66140625 49.09960938 23 49 C21.0243438 46.03651571 20.73623141 45.31979627 20.5859375 41.98828125 C20.54726562 41.23095703 20.50859375 40.47363281 20.46875 39.69335938 C20.4378125 38.90767578 20.406875 38.12199219 20.375 37.3125 C20.33632812 36.51521484 20.29765625 35.71792969 20.2578125 34.89648438 C20.16367506 32.93136525 20.08075368 30.9657146 20 29 C16.04 28.67 12.08 28.34 8 28 C8 34.93 8 41.86 8 49 C5.36 49 2.72 49 0 49 C0 32.83 0 16.66 0 0 Z " fill="#2C251F" transform="translate(2052,580)"/>
<path d="M0 0 C8.12604043 -0.60642093 8.12604043 -0.60642093 12.0625 2.125 C14 5 14 5 14.625 8 C13.75445216 12.17862962 12.50368509 13.56887157 9 16 C5.87327402 16.41306246 3.17628148 16.23703593 0 16 C0 10.72 0 5.44 0 0 Z " fill="#F4B213" transform="translate(2060,586)"/>
</svg>
