<?xml version="1.0" standalone="no"?>
<!DOCTYPE svg PUBLIC "-//W3C//DTD SVG 20010904//EN"
 "http://www.w3.org/TR/2001/REC-SVG-20010904/DTD/svg10.dtd">
<svg version="1.0" xmlns="http://www.w3.org/2000/svg"
 width="512.000000pt" height="512.000000pt" viewBox="0 0 512.000000 512.000000"
 preserveAspectRatio="xMidYMid meet">

<g transform="translate(0.000000,512.000000) scale(0.100000,-0.100000)"
fill="#000000" stroke="none">
<path d="M730 4181 c-8 -5 -45 -23 -81 -41 -84 -40 -161 -116 -199 -195 -21
-42 -62 -198 -140 -535 -61 -261 -150 -639 -197 -840 l-85 -365 17 -100 c49
-288 178 -624 337 -879 49 -79 189 -268 247 -334 l29 -33 1730 0 c1666 1 1733
2 1791 20 166 52 279 182 321 369 25 112 372 1599 516 2212 100 426 110 490
85 564 -17 49 -73 111 -125 139 l-41 22 -2095 2 c-1152 1 -2102 -2 -2110 -6z
m-235 -1003 c-27 -117 -115 -566 -115 -588 0 -19 11 -42 29 -62 28 -31 33 -33
98 -33 59 0 76 4 110 27 25 16 49 44 61 70 11 24 46 167 77 318 31 151 59 278
62 283 2 4 42 7 89 7 74 0 84 -2 84 -18 0 -15 -67 -342 -111 -542 -44 -200
-178 -300 -404 -301 -186 0 -280 75 -279 221 0 52 98 568 119 628 3 8 31 12
95 12 89 0 90 0 85 -22z m3098 -37 c59 -36 80 -89 75 -180 -8 -129 -68 -224
-180 -283 -37 -19 -63 -23 -188 -28 l-145 -5 -30 -145 -30 -145 -79 -3 c-44
-2 -83 1 -87 5 -7 7 139 752 156 801 4 11 52 13 237 10 224 -3 234 -4 271 -27z
m-1793 -111 c0 -5 -5 -32 -11 -60 l-11 -50 -69 0 c-77 0 -77 0 -58 76 l11 44
69 0 c38 0 69 -4 69 -10z m-403 -180 c39 -23 56 -53 56 -99 0 -49 -63 -373
-76 -388 -11 -14 -113 -18 -121 -5 -3 5 8 76 25 158 37 190 37 221 3 236 -37
17 -102 -7 -130 -49 -13 -20 -31 -83 -49 -175 -15 -79 -32 -151 -37 -160 -7
-14 -22 -18 -68 -18 -51 0 -60 3 -60 18 1 9 22 123 48 252 l48 235 64 0 c63 0
65 -1 62 -24 l-4 -24 30 22 c44 31 71 40 127 40 33 1 61 -6 82 -19z m840 -1
c67 -32 98 -93 97 -189 0 -98 -33 -169 -110 -239 -127 -116 -314 -106 -380 21
-16 31 -19 146 -4 198 27 97 117 194 204 219 58 17 147 13 193 -10z m605 -4
c59 -44 60 -70 10 -310 l-37 -180 -62 -3 c-77 -4 -75 -17 -31 206 l33 164 -24
19 c-30 24 -68 24 -109 -1 -43 -26 -54 -56 -88 -225 -15 -77 -31 -146 -37
-152 -10 -14 -113 -18 -120 -5 -4 6 24 160 84 450 l11 53 61 -3 c58 -3 62 -4
59 -26 -3 -23 -3 -23 50 8 46 27 61 31 113 28 40 -3 69 -10 87 -23z m-1089 8
c5 -10 -95 -473 -106 -490 -11 -17 -124 -18 -129 -2 -3 10 71 372 96 475 6 22
11 24 71 24 35 0 66 -3 68 -7z m2670 -60 c4 -38 7 -111 7 -163 l1 -95 69 160
68 160 76 3 c42 2 76 1 76 -1 0 -13 -325 -666 -355 -714 -77 -122 -154 -180
-251 -190 l-54 -6 0 35 c0 40 11 55 63 89 41 26 114 127 146 203 l21 47 -20
231 c-11 127 -20 248 -20 269 l0 39 84 0 83 0 6 -67z m-518 17 c22 -11 44 -20
51 -20 6 0 19 9 29 20 15 17 31 20 92 20 40 0 73 -3 73 -7 0 -17 -99 -453
-105 -463 -10 -16 -137 -12 -163 5 -20 14 -26 14 -67 0 -25 -8 -68 -15 -95
-15 -43 0 -56 5 -88 34 l-37 35 0 103 c0 94 3 108 29 158 39 74 61 101 104
127 48 30 123 31 177 3z"/>
<path d="M3211 2923 c-11 -60 -21 -111 -21 -115 0 -5 49 -8 109 -8 96 0 111 2
136 22 49 38 72 131 42 172 -17 23 -75 35 -168 36 l-76 0 -22 -107z"/>
<path d="M2050 2741 c-50 -26 -84 -98 -85 -177 0 -69 17 -98 63 -107 68 -13
129 30 157 111 47 141 -24 233 -135 173z"/>
<path d="M3816 2690 c-45 -40 -70 -106 -64 -165 7 -55 22 -75 58 -75 54 0 108
76 117 164 4 42 1 56 -17 79 -28 35 -51 34 -94 -3z"/>
</g>
</svg>
